<svg xmlns="http://www.w3.org/2000/svg" viewBox="0 0 1580.91 789.16"><defs><style>.cls-1{fill:#fff;}</style></defs><title>inverse-logo</title><g id="Layer_2" data-name="Layer 2"><g id="Layer_1-2" data-name="Layer 1"><circle class="cls-1" cx="386.12" cy="774.29" r="13.31" transform="translate(-422.96 1080.89) rotate(-84.25)"/><circle class="cls-1" cx="390.76" cy="727.95" r="13.31" transform="translate(-403.85 954.25) rotate(-77.67)"/><path class="cls-1" d="M413.28,686.77A13.31,13.31,0,1,1,405,669.86,13.32,13.32,0,0,1,413.28,686.77Z"/><path class="cls-1" d="M427.77,644.13a13.31,13.31,0,1,1-6.29-17.75A13.31,13.31,0,0,1,427.77,644.13Z"/><path class="cls-1" d="M447.05,603.42a13.31,13.31,0,1,1-4.22-18.34A13.32,13.32,0,0,1,447.05,603.42Z"/><path class="cls-1" d="M470.87,565.19a13.31,13.31,0,1,1-2.08-18.7A13.32,13.32,0,0,1,470.87,565.19Z"/><path class="cls-1" d="M498.91,529.94a13.31,13.31,0,1,1,.07-18.82A13.32,13.32,0,0,1,498.91,529.94Z"/><path class="cls-1" d="M530.8,498.14A13.31,13.31,0,1,1,533,479.44,13.32,13.32,0,0,1,530.8,498.14Z"/><path class="cls-1" d="M566.12,470.2a13.31,13.31,0,1,1,4.35-18.31A13.32,13.32,0,0,1,566.12,470.2Z"/><path class="cls-1" d="M604.42,446.49a13.31,13.31,0,1,1,6.42-17.69A13.32,13.32,0,0,1,604.42,446.49Z"/><path class="cls-1" d="M645.17,427.32a13.31,13.31,0,1,1,8.41-16.85A13.33,13.33,0,0,1,645.17,427.32Z"/><path class="cls-1" d="M687.86,412.95a13.32,13.32,0,1,1,10.28-15.77A13.34,13.34,0,0,1,687.86,412.95Z"/><path class="cls-1" d="M730.17,403.55a13.31,13.31,0,1,1,12-14.49A13.33,13.33,0,0,1,730.17,403.55Z"/><path class="cls-1" d="M774.13,398.84a13.31,13.31,0,1,1,13.59-13A13.33,13.33,0,0,1,774.13,398.84Z"/><path class="cls-1" d="M818.72,400.16a13.32,13.32,0,1,1,15-11.36A13.33,13.33,0,0,1,818.72,400.16Z"/><path class="cls-1" d="M860.1,404a13.31,13.31,0,1,1,16.2-9.57A13.33,13.33,0,0,1,860.1,404Z"/><path class="cls-1" d="M899.81,412.52A13.31,13.31,0,1,1,917,404.87,13.32,13.32,0,0,1,899.81,412.52Z"/><path class="cls-1" d="M943.64,428.1a13.31,13.31,0,1,1,18-5.63A13.33,13.33,0,0,1,943.64,428.1Z"/><path class="cls-1" d="M981.66,445.59a13.32,13.32,0,1,1,18.48-3.54A13.32,13.32,0,0,1,981.66,445.59Z"/><path class="cls-1" d="M1021.54,470.4a13.32,13.32,0,1,1,18.76-1.39A13.32,13.32,0,0,1,1021.54,470.4Z"/><path class="cls-1" d="M1053.19,498.78a13.31,13.31,0,1,1,18.8.77A13.33,13.33,0,0,1,1053.19,498.78Z"/><path class="cls-1" d="M1081.73,530.58a13.32,13.32,0,1,1,18.59,2.91A13.33,13.33,0,0,1,1081.73,530.58Z"/><path class="cls-1" d="M1110.33,567.23a13.32,13.32,0,1,1,18.14,5A13.33,13.33,0,0,1,1110.33,567.23Z"/><path class="cls-1" d="M1136.67,604a13.32,13.32,0,1,1,17.44,7.06A13.32,13.32,0,0,1,1136.67,604Z"/><path class="cls-1" d="M1156.3,648.7a13.32,13.32,0,1,1,16.52,9A13.33,13.33,0,0,1,1156.3,648.7Z"/><path class="cls-1" d="M1169.1,688a13.32,13.32,0,1,1,15.37,10.84A13.33,13.33,0,0,1,1169.1,688Z"/><path class="cls-1" d="M1178.84,733a13.32,13.32,0,1,1,14,12.53A13.33,13.33,0,0,1,1178.84,733Z"/><path class="cls-1" d="M1181.37,773.33a13.32,13.32,0,1,1,12.5,14.06A13.33,13.33,0,0,1,1181.37,773.33Z"/><circle class="cls-1" cx="303.28" cy="774.29" r="13.31" transform="translate(-497.5 998.46) rotate(-84.25)"/><path class="cls-1" d="M320.29,729.67A13.31,13.31,0,1,1,309.86,714,13.31,13.31,0,0,1,320.29,729.67Z"/><path class="cls-1" d="M328.51,684.3a13.31,13.31,0,1,1-8.88-16.61A13.32,13.32,0,0,1,328.51,684.3Z"/><circle class="cls-1" cx="328.77" cy="634.85" r="13.31" transform="translate(-383.51 696.44) rotate(-67.56)"/><path class="cls-1" d="M357.88,597a13.31,13.31,0,1,1-5.51-18A13.31,13.31,0,0,1,357.88,597Z"/><path class="cls-1" d="M378.77,555.9A13.31,13.31,0,1,1,375,537.44,13.31,13.31,0,0,1,378.77,555.9Z"/><path class="cls-1" d="M403.54,517a13.32,13.32,0,1,1-1.93-18.73A13.32,13.32,0,0,1,403.54,517Z"/><path class="cls-1" d="M432,480.71a13.31,13.31,0,1,1-.11-18.83A13.32,13.32,0,0,1,432,480.71Z"/><path class="cls-1" d="M463.78,447.32a13.32,13.32,0,1,1,1.72-18.75A13.32,13.32,0,0,1,463.78,447.32Z"/><path class="cls-1" d="M498.67,417.18a13.32,13.32,0,1,1,3.53-18.49A13.32,13.32,0,0,1,498.67,417.18Z"/><path class="cls-1" d="M536.31,390.56a13.31,13.31,0,1,1,5.3-18.06A13.3,13.3,0,0,1,536.31,390.56Z"/><path class="cls-1" d="M576.36,367.72a13.31,13.31,0,1,1,7-17.46A13.31,13.31,0,0,1,576.36,367.72Z"/><path class="cls-1" d="M618.44,348.86a13.31,13.31,0,1,1,8.69-16.7A13.3,13.3,0,0,1,618.44,348.86Z"/><path class="cls-1" d="M662.14,334.16a13.31,13.31,0,1,1,10.27-15.78A13.31,13.31,0,0,1,662.14,334.16Z"/><path class="cls-1" d="M707.06,323.77a13.31,13.31,0,1,1,11.74-14.7A13.3,13.3,0,0,1,707.06,323.77Z"/><path class="cls-1" d="M759.28,317.43a13.31,13.31,0,1,1,13.11-13.5A13.3,13.3,0,0,1,759.28,317.43Z"/><path class="cls-1" d="M275.12,774.9A13.31,13.31,0,1,1,262,761.39,13.31,13.31,0,0,1,275.12,774.9Z"/><path class="cls-1" d="M278.7,728.59A13.31,13.31,0,1,1,266.87,714,13.31,13.31,0,0,1,278.7,728.59Z"/><path class="cls-1" d="M286.43,682.79A13.31,13.31,0,1,1,276,667.15,13.31,13.31,0,0,1,286.43,682.79Z"/><path class="cls-1" d="M298.23,637.86a13.31,13.31,0,1,1-9-16.51A13.3,13.3,0,0,1,298.23,637.86Z"/><path class="cls-1" d="M314,594.18a13.31,13.31,0,1,1-7.5-17.26A13.31,13.31,0,0,1,314,594.18Z"/><path class="cls-1" d="M333.68,552.09a13.31,13.31,0,1,1-5.93-17.86A13.31,13.31,0,0,1,333.68,552.09Z"/><path class="cls-1" d="M357,511.94a13.31,13.31,0,1,1-4.29-18.32A13.31,13.31,0,0,1,357,511.94Z"/><path class="cls-1" d="M383.9,474a13.31,13.31,0,1,1-2.63-18.63A13.3,13.3,0,0,1,383.9,474Z"/><path class="cls-1" d="M414.06,438.71a13.31,13.31,0,1,1-1-18.79A13.31,13.31,0,0,1,414.06,438.71Z"/><path class="cls-1" d="M447.27,406.24a13.31,13.31,0,1,1,.75-18.8A13.31,13.31,0,0,1,447.27,406.24Z"/><path class="cls-1" d="M483.26,376.87a13.31,13.31,0,1,1,2.43-18.65A13.31,13.31,0,0,1,483.26,376.87Z"/><path class="cls-1" d="M521.74,350.86a13.31,13.31,0,1,1,4.1-18.36A13.3,13.3,0,0,1,521.74,350.86Z"/><path class="cls-1" d="M562.41,328.41a13.31,13.31,0,1,1,5.73-17.92A13.31,13.31,0,0,1,562.41,328.41Z"/><path class="cls-1" d="M604.93,309.7a13.31,13.31,0,1,1,7.32-17.33A13.31,13.31,0,0,1,604.93,309.7Z"/><path class="cls-1" d="M649,294.89a13.31,13.31,0,1,1,8.85-16.61A13.3,13.3,0,0,1,649,294.89Z"/><path class="cls-1" d="M694.13,284.08a13.31,13.31,0,1,1,10.3-15.74A13.3,13.3,0,0,1,694.13,284.08Z"/><path class="cls-1" d="M740.09,277.39a13.31,13.31,0,1,1,11.67-14.76A13.31,13.31,0,0,1,740.09,277.39Z"/><path class="cls-1" d="M232.85,769.48a13.31,13.31,0,1,1-17.22-7.61A13.31,13.31,0,0,1,232.85,769.48Z"/><path class="cls-1" d="M236.56,723.62a13.31,13.31,0,1,1-16.54-9A13.33,13.33,0,0,1,236.56,723.62Z"/><path class="cls-1" d="M244,678.22a13.31,13.31,0,1,1-15.74-10.32A13.32,13.32,0,0,1,244,678.22Z"/><path class="cls-1" d="M255.19,633.58A13.31,13.31,0,1,1,240.35,622,13.32,13.32,0,0,1,255.19,633.58Z"/><path class="cls-1" d="M270,590a13.32,13.32,0,1,1-13.84-12.76A13.33,13.33,0,0,1,270,590Z"/><path class="cls-1" d="M288.33,547.82A13.32,13.32,0,1,1,275.59,534,13.32,13.32,0,0,1,288.33,547.82Z"/><path class="cls-1" d="M310.06,507.27a13.31,13.31,0,1,1-11.55-14.86A13.31,13.31,0,0,1,310.06,507.27Z"/><path class="cls-1" d="M335.07,468.64a13.32,13.32,0,1,1-10.29-15.76A13.33,13.33,0,0,1,335.07,468.64Z"/><path class="cls-1" d="M363.17,432.2a13.32,13.32,0,1,1-9-16.55A13.32,13.32,0,0,1,363.17,432.2Z"/><path class="cls-1" d="M394.16,398.19A13.32,13.32,0,1,1,386.59,381,13.32,13.32,0,0,1,394.16,398.19Z"/><path class="cls-1" d="M427.84,366.85a13.31,13.31,0,1,1-6.13-17.79A13.31,13.31,0,0,1,427.84,366.85Z"/><path class="cls-1" d="M464,338.38a13.31,13.31,0,1,1-4.64-18.23A13.31,13.31,0,0,1,464,338.38Z"/><path class="cls-1" d="M502.36,313a13.32,13.32,0,1,1-3.13-18.55A13.32,13.32,0,0,1,502.36,313Z"/><path class="cls-1" d="M542.68,290.83a13.31,13.31,0,1,1-1.59-18.75A13.31,13.31,0,0,1,542.68,290.83Z"/><path class="cls-1" d="M584.69,272.06a13.31,13.31,0,1,1,0-18.82A13.32,13.32,0,0,1,584.69,272.06Z"/><path class="cls-1" d="M628.11,256.81a13.32,13.32,0,1,1,1.5-18.76A13.32,13.32,0,0,1,628.11,256.81Z"/><path class="cls-1" d="M672.62,245.19a13.31,13.31,0,1,1,3-18.57A13.32,13.32,0,0,1,672.62,245.19Z"/><path class="cls-1" d="M717.94,237.26A13.31,13.31,0,1,1,722.5,219,13.31,13.31,0,0,1,717.94,237.26Z"/><path class="cls-1" d="M763.76,233.08a13.31,13.31,0,1,1,6-17.82A13.32,13.32,0,0,1,763.76,233.08Z"/><circle class="cls-1" cx="179.01" cy="774.29" r="13.31" transform="translate(-609.32 874.81) rotate(-84.25)"/><circle class="cls-1" cx="182.16" cy="727.08" r="13.31" transform="translate(-565.66 777.92) rotate(-79.82)"/><path class="cls-1" d="M201.83,683.61a13.31,13.31,0,1,1-9.52-16.24A13.32,13.32,0,0,1,201.83,683.61Z"/><path class="cls-1" d="M211.92,638.43a13.31,13.31,0,1,1-8.25-16.92A13.32,13.32,0,0,1,211.92,638.43Z"/><circle class="cls-1" cx="213.24" cy="588.87" r="13.31" transform="translate(-411.86 550.21) rotate(-66.55)"/><path class="cls-1" d="M242.36,551.08a13.31,13.31,0,1,1-5.54-18A13.31,13.31,0,0,1,242.36,551.08Z"/><path class="cls-1" d="M262.55,509.43a13.31,13.31,0,1,1-4.14-18.36A13.32,13.32,0,0,1,262.55,509.43Z"/><path class="cls-1" d="M285.89,469.45a13.31,13.31,0,1,1-2.71-18.62A13.31,13.31,0,0,1,285.89,469.45Z"/><path class="cls-1" d="M312.24,431.4A13.31,13.31,0,1,1,311,412.62,13.31,13.31,0,0,1,312.24,431.4Z"/><path class="cls-1" d="M341.45,395.5a13.31,13.31,0,1,1,.19-18.82A13.31,13.31,0,0,1,341.45,395.5Z"/><circle class="cls-1" cx="364.79" cy="351.75" r="13.31" transform="translate(-140.75 316.73) rotate(-39.99)"/><path class="cls-1" d="M407.74,331a13.31,13.31,0,1,1,3.08-18.57A13.31,13.31,0,0,1,407.74,331Z"/><path class="cls-1" d="M444.41,302.72a13.31,13.31,0,1,1,4.5-18.28A13.3,13.3,0,0,1,444.41,302.72Z"/><path class="cls-1" d="M483.16,277.4a13.31,13.31,0,1,1,5.9-17.87A13.31,13.31,0,0,1,483.16,277.4Z"/><path class="cls-1" d="M523.74,255.14A13.31,13.31,0,1,1,531,237.77,13.31,13.31,0,0,1,523.74,255.14Z"/><path class="cls-1" d="M565.92,236.07a13.31,13.31,0,1,1,8.58-16.75A13.3,13.3,0,0,1,565.92,236.07Z"/><path class="cls-1" d="M609.44,220.32a13.31,13.31,0,1,1,9.85-16A13.29,13.29,0,0,1,609.44,220.32Z"/><path class="cls-1" d="M654.06,208a13.31,13.31,0,1,1,11.06-15.23A13.3,13.3,0,0,1,654.06,208Z"/><path class="cls-1" d="M699.49,199.11a13.31,13.31,0,1,1,12.2-14.34A13.3,13.3,0,0,1,699.49,199.11Z"/><path class="cls-1" d="M745.47,193.77a13.31,13.31,0,1,1,13.27-13.35A13.3,13.3,0,0,1,745.47,193.77Z"/><circle class="cls-1" cx="137.59" cy="774.29" r="13.31" transform="translate(-646.59 833.6) rotate(-84.25)"/><circle class="cls-1" cx="140.48" cy="727.72" r="13.31" transform="translate(-600.55 741.83) rotate(-80.16)"/><path class="cls-1" d="M159.6,684.69a13.31,13.31,0,1,1-9.72-16.13A13.32,13.32,0,0,1,159.6,684.69Z"/><path class="cls-1" d="M168.82,639.92a13.31,13.31,0,1,1-8.54-16.78A13.31,13.31,0,0,1,168.82,639.92Z"/><path class="cls-1" d="M181.21,595.93a13.31,13.31,0,1,1-7.32-17.34A13.31,13.31,0,0,1,181.21,595.93Z"/><path class="cls-1" d="M196.7,552.93a13.31,13.31,0,1,1-6.07-17.82A13.31,13.31,0,0,1,196.7,552.93Z"/><path class="cls-1" d="M215.22,511.14a13.31,13.31,0,1,1-4.78-18.21A13.31,13.31,0,0,1,215.22,511.14Z"/><path class="cls-1" d="M236.67,470.78a13.31,13.31,0,1,1-3.47-18.5A13.32,13.32,0,0,1,236.67,470.78Z"/><path class="cls-1" d="M260.94,432.05a13.31,13.31,0,1,1-2.15-18.71A13.32,13.32,0,0,1,260.94,432.05Z"/><path class="cls-1" d="M287.9,395.15a13.31,13.31,0,1,1-.81-18.81A13.31,13.31,0,0,1,287.9,395.15Z"/><path class="cls-1" d="M317.43,360.27a13.31,13.31,0,1,1,.53-18.82A13.32,13.32,0,0,1,317.43,360.27Z"/><path class="cls-1" d="M349.37,327.57a13.31,13.31,0,1,1,1.88-18.73A13.31,13.31,0,0,1,349.37,327.57Z"/><path class="cls-1" d="M383.56,297.24a13.31,13.31,0,1,1,3.21-18.56A13.32,13.32,0,0,1,383.56,297.24Z"/><path class="cls-1" d="M419.82,269.42a13.32,13.32,0,1,1,4.52-18.28A13.31,13.31,0,0,1,419.82,269.42Z"/><path class="cls-1" d="M458,244.26a13.31,13.31,0,1,1,5.82-17.91A13.31,13.31,0,0,1,458,244.26Z"/><path class="cls-1" d="M497.82,221.88a13.31,13.31,0,1,1,7.08-17.45A13.31,13.31,0,0,1,497.82,221.88Z"/><path class="cls-1" d="M539.16,202.39a13.31,13.31,0,1,1,8.31-16.9A13.31,13.31,0,0,1,539.16,202.39Z"/><path class="cls-1" d="M581.79,185.9a13.31,13.31,0,1,1,9.49-16.27A13.31,13.31,0,0,1,581.79,185.9Z"/><path class="cls-1" d="M625.49,172.49a13.32,13.32,0,1,1,10.62-15.55A13.32,13.32,0,0,1,625.49,172.49Z"/><path class="cls-1" d="M670,162.23a13.32,13.32,0,1,1,11.71-14.76A13.32,13.32,0,0,1,670,162.23Z"/><path class="cls-1" d="M715.18,155.17a13.32,13.32,0,1,1,12.73-13.89A13.32,13.32,0,0,1,715.18,155.17Z"/><path class="cls-1" d="M760.72,151.34a13.32,13.32,0,1,1,13.69-12.94A13.32,13.32,0,0,1,760.72,151.34Z"/><path class="cls-1" d="M806.42,150.77A13.32,13.32,0,1,1,821,138.84,13.32,13.32,0,0,1,806.42,150.77Z"/><path class="cls-1" d="M850.35,150.49a13.32,13.32,0,1,1,15.39-10.87A13.32,13.32,0,0,1,850.35,150.49Z"/><path class="cls-1" d="M887.36,156.83a13.32,13.32,0,1,1,16.13-9.74A13.32,13.32,0,0,1,887.36,156.83Z"/><circle class="cls-1" cx="96.16" cy="774.29" r="13.31" transform="translate(-683.86 792.37) rotate(-84.25)"/><path class="cls-1" d="M112.12,728.68a13.31,13.31,0,1,1-10.87-15.36A13.32,13.32,0,0,1,112.12,728.68Z"/><path class="cls-1" d="M118.07,682a13.31,13.31,0,1,1-9.8-16.08A13.32,13.32,0,0,1,118.07,682Z"/><path class="cls-1" d="M127.21,635.92a13.31,13.31,0,1,1-8.66-16.71A13.32,13.32,0,0,1,127.21,635.92Z"/><path class="cls-1" d="M139.51,590.54A13.31,13.31,0,1,1,132,573.27,13.31,13.31,0,0,1,139.51,590.54Z"/><path class="cls-1" d="M154.91,546.12a13.31,13.31,0,1,1-6.29-17.74A13.31,13.31,0,0,1,154.91,546.12Z"/><path class="cls-1" d="M173.33,502.86a13.31,13.31,0,1,1-5-18.14A13.32,13.32,0,0,1,173.33,502.86Z"/><path class="cls-1" d="M194.68,461a13.31,13.31,0,1,1-3.79-18.44A13.32,13.32,0,0,1,194.68,461Z"/><path class="cls-1" d="M218.87,420.66A13.31,13.31,0,1,1,216.36,402,13.31,13.31,0,0,1,218.87,420.66Z"/><path class="cls-1" d="M245.78,382.11a13.31,13.31,0,1,1-1.22-18.79A13.31,13.31,0,0,1,245.78,382.11Z"/><path class="cls-1" d="M275.29,345.5a13.31,13.31,0,1,1,.08-18.82A13.31,13.31,0,0,1,275.29,345.5Z"/><path class="cls-1" d="M307.24,311a13.31,13.31,0,1,1,1.37-18.77A13.31,13.31,0,0,1,307.24,311Z"/><path class="cls-1" d="M341.49,278.8a13.31,13.31,0,1,1,2.66-18.63A13.31,13.31,0,0,1,341.49,278.8Z"/><path class="cls-1" d="M377.89,249a13.31,13.31,0,1,1,3.94-18.4A13.32,13.32,0,0,1,377.89,249Z"/><path class="cls-1" d="M416.24,221.84a13.31,13.31,0,1,1,5.19-18.09A13.32,13.32,0,0,1,416.24,221.84Z"/><path class="cls-1" d="M456.38,197.36a13.31,13.31,0,1,1,6.44-17.69A13.32,13.32,0,0,1,456.38,197.36Z"/><path class="cls-1" d="M498.11,175.7a13.31,13.31,0,1,1,7.64-17.2A13.32,13.32,0,0,1,498.11,175.7Z"/><path class="cls-1" d="M541.23,157a13.31,13.31,0,1,1,8.8-16.64A13.32,13.32,0,0,1,541.23,157Z"/><circle class="cls-1" cx="54.74" cy="774.29" r="13.31" transform="translate(-721.14 751.17) rotate(-84.25)"/><path class="cls-1" d="M70.54,728.67a13.31,13.31,0,1,1-10.94-15.32A13.32,13.32,0,0,1,70.54,728.67Z"/><path class="cls-1" d="M76.14,682a13.31,13.31,0,1,1-9.92-16A13.31,13.31,0,0,1,76.14,682Z"/><path class="cls-1" d="M84.77,635.77a13.31,13.31,0,1,1-8.86-16.61A13.32,13.32,0,0,1,84.77,635.77Z"/><path class="cls-1" d="M96.37,590.21a13.31,13.31,0,1,1-7.76-17.15A13.32,13.32,0,0,1,96.37,590.21Z"/><path class="cls-1" d="M110.91,545.5a13.31,13.31,0,1,1-6.64-17.62A13.32,13.32,0,0,1,110.91,545.5Z"/><path class="cls-1" d="M128.32,501.83a13.31,13.31,0,1,1-5.48-18A13.32,13.32,0,0,1,128.32,501.83Z"/><path class="cls-1" d="M148.53,459.38a13.31,13.31,0,1,1-4.3-18.34A13.33,13.33,0,0,1,148.53,459.38Z"/><path class="cls-1" d="M171.45,418.33a13.31,13.31,0,1,1-3.1-18.58A13.33,13.33,0,0,1,171.45,418.33Z"/><path class="cls-1" d="M197,378.86a13.31,13.31,0,1,1-1.89-18.74A13.32,13.32,0,0,1,197,378.86Z"/><path class="cls-1" d="M225,341.13a13.32,13.32,0,1,1-.67-18.82A13.34,13.34,0,0,1,225,341.13Z"/><path class="cls-1" d="M255.48,305.29a13.31,13.31,0,1,1,.56-18.82A13.33,13.33,0,0,1,255.48,305.29Z"/><path class="cls-1" d="M288.18,271.51A13.31,13.31,0,1,1,290,252.77,13.33,13.33,0,0,1,288.18,271.51Z"/><path class="cls-1" d="M323,239.93a13.31,13.31,0,1,1,3-18.59A13.33,13.33,0,0,1,323,239.93Z"/><path class="cls-1" d="M359.81,210.67A13.31,13.31,0,1,1,364,192.31,13.33,13.33,0,0,1,359.81,210.67Z"/><path class="cls-1" d="M398.43,183.86a13.31,13.31,0,1,1,5.37-18A13.33,13.33,0,0,1,398.43,183.86Z"/><path class="cls-1" d="M438.72,159.62A13.31,13.31,0,1,1,445.25,142,13.33,13.33,0,0,1,438.72,159.62Z"/><path class="cls-1" d="M480.49,138a13.31,13.31,0,1,1,7.66-17.2A13.33,13.33,0,0,1,480.49,138Z"/><path class="cls-1" d="M523.58,119.23a13.31,13.31,0,1,1,8.76-16.67A13.33,13.33,0,0,1,523.58,119.23Z"/><path class="cls-1" d="M567.79,103.25a13.31,13.31,0,1,1,9.83-16.07A13.33,13.33,0,0,1,567.79,103.25Z"/><path class="cls-1" d="M613,90.17a13.31,13.31,0,1,1,10.84-15.4A13.33,13.33,0,0,1,613,90.17Z"/><path class="cls-1" d="M658.87,80.06A13.31,13.31,0,1,1,670.69,65.4,13.33,13.33,0,0,1,658.87,80.06Z"/><path class="cls-1" d="M705.34,72.94a13.31,13.31,0,1,1,12.75-13.86A13.34,13.34,0,0,1,705.34,72.94Z"/><path class="cls-1" d="M752.18,68.86a13.31,13.31,0,1,1,13.62-13A13.34,13.34,0,0,1,752.18,68.86Z"/><path class="cls-1" d="M799.18,67.83a13.31,13.31,0,1,1,14.44-12.09A13.33,13.33,0,0,1,799.18,67.83Z"/><path class="cls-1" d="M846.15,69.86a13.31,13.31,0,1,1,15.19-11.13A13.34,13.34,0,0,1,846.15,69.86Z"/><path class="cls-1" d="M892.89,74.93a13.31,13.31,0,1,1,15.88-10.12A13.34,13.34,0,0,1,892.89,74.93Z"/><path class="cls-1" d="M939.21,83A13.31,13.31,0,1,1,955.72,74,13.34,13.34,0,0,1,939.21,83Z"/><path class="cls-1" d="M984.9,94.1a13.31,13.31,0,1,1,17.07-8A13.33,13.33,0,0,1,984.9,94.1Z"/><path class="cls-1" d="M1029.77,108.13a13.31,13.31,0,1,1,17.55-6.85A13.34,13.34,0,0,1,1029.77,108.13Z"/><path class="cls-1" d="M1073.64,125a13.32,13.32,0,1,1,18-5.7A13.34,13.34,0,0,1,1073.64,125Z"/><circle class="cls-1" cx="13.32" cy="774.29" r="13.31" transform="translate(-758.41 709.96) rotate(-84.25)"/><path class="cls-1" d="M29,729a13.31,13.31,0,1,1-11-15.28A13.33,13.33,0,0,1,29,729Z"/><path class="cls-1" d="M34.18,682.67a13.31,13.31,0,1,1-10.05-15.92A13.32,13.32,0,0,1,34.18,682.67Z"/><path class="cls-1" d="M42.22,636.71a13.31,13.31,0,1,1-9.06-16.5A13.32,13.32,0,0,1,42.22,636.71Z"/><path class="cls-1" d="M53.06,591.33a13.31,13.31,0,1,1-8-17A13.32,13.32,0,0,1,53.06,591.33Z"/><path class="cls-1" d="M66.63,546.69a13.31,13.31,0,1,1-7-17.49A13.32,13.32,0,0,1,66.63,546.69Z"/><path class="cls-1" d="M82.9,503A13.31,13.31,0,1,1,77,485.09,13.32,13.32,0,0,1,82.9,503Z"/><path class="cls-1" d="M101.8,460.31A13.32,13.32,0,1,1,97,442.11,13.32,13.32,0,0,1,101.8,460.31Z"/><path class="cls-1" d="M123.27,418.89a13.32,13.32,0,1,1-3.69-18.47A13.33,13.33,0,0,1,123.27,418.89Z"/><path class="cls-1" d="M147.22,378.85a13.31,13.31,0,1,1-2.56-18.66A13.32,13.32,0,0,1,147.22,378.85Z"/><path class="cls-1" d="M173.57,340.35a13.31,13.31,0,1,1-1.42-18.78A13.33,13.33,0,0,1,173.57,340.35Z"/><path class="cls-1" d="M202.22,303.52a13.31,13.31,0,1,1-.27-18.83A13.33,13.33,0,0,1,202.22,303.52Z"/><path class="cls-1" d="M233.06,268.51a13.31,13.31,0,1,1,.88-18.81A13.32,13.32,0,0,1,233.06,268.51Z"/><path class="cls-1" d="M266,235.44a13.31,13.31,0,1,1,2-18.72A13.33,13.33,0,0,1,266,235.44Z"/><path class="cls-1" d="M300.84,204.45A13.31,13.31,0,1,1,304,185.88,13.33,13.33,0,0,1,300.84,204.45Z"/><path class="cls-1" d="M337.53,175.63a13.31,13.31,0,1,1,4.29-18.34A13.34,13.34,0,0,1,337.53,175.63Z"/><path class="cls-1" d="M375.91,149.1a13.31,13.31,0,1,1,5.4-18A13.33,13.33,0,0,1,375.91,149.1Z"/><path class="cls-1" d="M415.84,125a13.31,13.31,0,1,1,6.49-17.68A13.33,13.33,0,0,1,415.84,125Z"/><path class="cls-1" d="M457.15,103.3a13.31,13.31,0,1,1,7.56-17.25A13.32,13.32,0,0,1,457.15,103.3Z"/><path class="cls-1" d="M499.72,84.2a13.31,13.31,0,1,1,8.59-16.76A13.33,13.33,0,0,1,499.72,84.2Z"/><path class="cls-1" d="M543.38,67.73a13.31,13.31,0,1,1,9.6-16.2A13.33,13.33,0,0,1,543.38,67.73Z"/><path class="cls-1" d="M587.95,54a13.31,13.31,0,1,1,10.57-15.59A13.33,13.33,0,0,1,587.95,54Z"/><path class="cls-1" d="M633.28,42.92A13.31,13.31,0,1,1,644.78,28,13.33,13.33,0,0,1,633.28,42.92Z"/><path class="cls-1" d="M679.2,34.66a13.31,13.31,0,1,1,12.39-14.19A13.33,13.33,0,0,1,679.2,34.66Z"/><path class="cls-1" d="M725.53,29.22a13.31,13.31,0,1,1,13.23-13.41A13.33,13.33,0,0,1,725.53,29.22Z"/><path class="cls-1" d="M772.12,26.61a13.32,13.32,0,1,1,14-12.58A13.33,13.33,0,0,1,772.12,26.61Z"/><path class="cls-1" d="M818.77,26.85a13.32,13.32,0,1,1,14.76-11.7A13.34,13.34,0,0,1,818.77,26.85Z"/><path class="cls-1" d="M865.32,29.93a13.32,13.32,0,1,1,15.45-10.78A13.34,13.34,0,0,1,865.32,29.93Z"/><path class="cls-1" d="M911.6,35.84A13.32,13.32,0,1,1,927.68,26,13.34,13.34,0,0,1,911.6,35.84Z"/><path class="cls-1" d="M957.44,44.56a13.31,13.31,0,1,1,16.64-8.82A13.34,13.34,0,0,1,957.44,44.56Z"/><path class="cls-1" d="M1002.65,56.06a13.32,13.32,0,1,1,17.15-7.79A13.34,13.34,0,0,1,1002.65,56.06Z"/><path class="cls-1" d="M1047.08,70.29a13.32,13.32,0,1,1,17.59-6.73A13.33,13.33,0,0,1,1047.08,70.29Z"/><path class="cls-1" d="M1090.56,87.2a13.32,13.32,0,1,1,18-5.64A13.34,13.34,0,0,1,1090.56,87.2Z"/><ellipse class="cls-1" cx="426.26" cy="774.48" rx="12.77" ry="13.59"/><ellipse class="cls-1" cx="431.48" cy="730.33" rx="13.6" ry="12.77" transform="translate(-345.76 1070.11) rotate(-83.04)"/><path class="cls-1" d="M454.4,690.21c-1.8,7.29-8.82,11.82-15.67,10.12s-10.92-9-9.12-16.27,8.83-11.81,15.67-10.12S456.21,682.93,454.4,690.21Z"/><path class="cls-1" d="M469.63,650.1c-2.67,7-10.19,10.66-16.78,8.14S443.09,648,445.77,641s10.19-10.65,16.78-8.15S472.3,643.09,469.63,650.1Z"/><path class="cls-1" d="M489.61,612.13c-3.51,6.64-11.41,9.35-17.64,6.05s-8.44-11.35-4.94-18,11.41-9.34,17.64-6S493.12,605.5,489.61,612.13Z"/><path class="cls-1" d="M514,576.86c-4.29,6.16-12.46,7.89-18.25,3.86s-7-12.28-2.72-18.45,12.46-7.88,18.25-3.86S518.33,570.7,514,576.86Z"/><path class="cls-1" d="M542.57,544.82c-5,5.6-13.33,6.33-18.58,1.62s-5.46-13-.46-18.65,13.33-6.32,18.58-1.62S547.58,539.22,542.57,544.82Z"/><path class="cls-1" d="M574.78,516.47c-5.65,4.95-14,4.66-18.64-.64s-3.84-13.61,1.8-18.56,14-4.66,18.64.64S580.42,511.52,574.78,516.47Z"/><path class="cls-1" d="M610.18,492.24c-6.2,4.22-14.46,2.93-18.42-2.9s-2.16-14,4-18.21,14.46-2.92,18.43,2.9S616.38,488,610.18,492.24Z"/><path class="cls-1" d="M648.27,472.48c-6.67,3.44-14.71,1.15-17.94-5.12s-.45-14.13,6.21-17.59,14.71-1.15,17.94,5.12S654.94,469,648.27,472.48Z"/><path class="cls-1" d="M688.47,457.48c-7,2.61-14.74-.64-17.19-7.25s1.27-14.08,8.31-16.7,14.74.64,17.19,7.25S695.5,454.87,688.47,457.48Z"/><path class="cls-1" d="M730.18,447.47c-7.3,1.74-14.55-2.42-16.18-9.28s3-13.82,10.27-15.57,14.55,2.42,16.18,9.28S737.49,445.73,730.18,447.47Z"/><path class="cls-1" d="M772.81,442.59c-7.46.84-14.14-4.17-14.93-11.18s4.62-13.36,12.08-14.21,14.16,4.17,14.94,11.17S780.27,441.75,772.81,442.59Z"/><path class="cls-1" d="M815.71,442.92c-7.51-.07-13.54-5.86-13.46-12.9s6.2-12.71,13.71-12.64,13.54,5.85,13.47,12.9S823.22,443,815.71,442.92Z"/><path class="cls-1" d="M858.26,448.45c-7.45-1-12.73-7.46-11.8-14.44s7.7-11.86,15.14-10.89,12.73,7.45,11.81,14.44S865.7,449.42,858.26,448.45Z"/><path class="cls-1" d="M899.82,459.09c-7.27-1.87-11.73-8.94-10-15.76s9.08-10.84,16.35-9,11.73,8.94,10,15.76S907.09,461,899.82,459.09Z"/><path class="cls-1" d="M939.79,474.7c-7-2.74-10.57-10.3-8-16.86s10.33-9.66,17.31-6.92,10.57,10.29,8,16.86S946.77,477.44,939.79,474.7Z"/><path class="cls-1" d="M977.56,495c-6.6-3.57-9.23-11.51-5.88-17.71s11.44-8.34,18-4.77,9.25,11.5,5.9,17.71S984.16,498.61,977.56,495Z"/><path class="cls-1" d="M1012.59,519.82c-6.12-4.35-7.77-12.55-3.68-18.29s12.36-6.89,18.47-2.55,7.78,12.53,3.7,18.29S1018.71,524.15,1012.59,519.82Z"/><path class="cls-1" d="M1044.36,548.65c-5.55-5.06-6.19-13.4-1.44-18.6s13.1-5.34,18.64-.29,6.2,13.39,1.46,18.6S1049.91,553.69,1044.36,548.65Z"/><path class="cls-1" d="M1072.41,581.13c-4.91-5.7-4.53-14.05.82-18.64s13.65-3.71,18.55,2,4.53,14-.82,18.65S1077.3,586.81,1072.41,581.13Z"/><path class="cls-1" d="M1096.29,616.76c-4.17-6.25-2.78-14.5,3.09-18.4s14-2,18.16,4.21,2.8,14.49-3.07,18.41S1100.47,623,1096.29,616.76Z"/><path class="cls-1" d="M1115.19,655c-3.38-6.71-1-14.73,5.29-17.89s14.14-.32,17.52,6.38,1,14.72-5.27,17.9S1118.59,661.72,1115.19,655Z"/><path class="cls-1" d="M1130.3,695.37c-2.54-7.07.79-14.74,7.42-17.12s14.08,1.4,16.62,8.46-.78,14.73-7.41,17.12S1132.85,702.42,1130.3,695.37Z"/><path class="cls-1" d="M1139.54,736.65c-1.67-7.33,2.58-14.54,9.44-16.09s13.81,3.09,15.46,10.41-2.56,14.53-9.42,16.1S1141.22,744,1139.54,736.65Z"/><path class="cls-1" d="M1142.1,776.88c-.76-7.48,4.32-14.12,11.33-14.83s13.33,4.74,14.09,12.21-4.3,14.12-11.31,14.84S1142.89,784.33,1142.1,776.88Z"/><circle class="cls-1" cx="426.46" cy="774.28" r="13.31" transform="translate(-386.64 1121.05) rotate(-84.25)"/><circle class="cls-1" cx="386.34" cy="774.28" r="13.31" transform="translate(-422.73 1081.14) rotate(-84.25)"/><path class="cls-1" d="M1478,764a13.31,13.31,0,1,1-3,18.58A13.33,13.33,0,0,1,1478,764Z"/><path class="cls-1" d="M1474.56,717.26a13.31,13.31,0,1,1-1.71,18.74A13.33,13.33,0,0,1,1474.56,717.26Z"/><path class="cls-1" d="M1467.91,670.88a13.31,13.31,0,1,1-.43,18.82A13.33,13.33,0,0,1,1467.91,670.88Z"/><path class="cls-1" d="M1458.12,625.05a13.31,13.31,0,1,1,.85,18.8A13.32,13.32,0,0,1,1458.12,625.05Z"/><path class="cls-1" d="M1445.22,580a13.32,13.32,0,1,1,2.14,18.7A13.33,13.33,0,0,1,1445.22,580Z"/><path class="cls-1" d="M1429.28,535.94a13.32,13.32,0,1,1,3.4,18.51A13.33,13.33,0,0,1,1429.28,535.94Z"/><path class="cls-1" d="M1410.37,493.06A13.32,13.32,0,1,1,1415,511.3,13.34,13.34,0,0,1,1410.37,493.06Z"/><path class="cls-1" d="M1388.6,451.57a13.32,13.32,0,1,1,5.9,17.88A13.33,13.33,0,0,1,1388.6,451.57Z"/><path class="cls-1" d="M1364,411.66a13.31,13.31,0,1,1,7.09,17.43A13.33,13.33,0,0,1,1364,411.66Z"/><path class="cls-1" d="M1336.81,373.52a13.31,13.31,0,1,1,8.27,16.91A13.33,13.33,0,0,1,1336.81,373.52Z"/><path class="cls-1" d="M1307.06,337.33a13.31,13.31,0,1,1,9.4,16.31A13.33,13.33,0,0,1,1307.06,337.33Z"/><path class="cls-1" d="M1274.9,303.25a13.32,13.32,0,1,1,10.48,15.63A13.33,13.33,0,0,1,1274.9,303.25Z"/><path class="cls-1" d="M1240.49,271.44A13.31,13.31,0,1,1,1252,286.32,13.34,13.34,0,0,1,1240.49,271.44Z"/><path class="cls-1" d="M1204,242a13.32,13.32,0,1,1,12.52,14.06A13.34,13.34,0,0,1,1204,242Z"/><path class="cls-1" d="M1165.58,215.21A13.32,13.32,0,1,1,1179,228.38,13.34,13.34,0,0,1,1165.58,215.21Z"/><path class="cls-1" d="M1125.43,191.05a13.32,13.32,0,1,1,14.32,12.22A13.34,13.34,0,0,1,1125.43,191.05Z"/><path class="cls-1" d="M1083.72,169.69a13.32,13.32,0,1,1,15.12,11.22A13.34,13.34,0,0,1,1083.72,169.69Z"/><path class="cls-1" d="M1040.65,151.22a13.32,13.32,0,1,1,15.85,10.16A13.34,13.34,0,0,1,1040.65,151.22Z"/><path class="cls-1" d="M996.43,135.73a13.31,13.31,0,1,1,16.49,9.06A13.33,13.33,0,0,1,996.43,135.73Z"/><path class="cls-1" d="M951.26,123.29a13.31,13.31,0,1,1,17.08,7.91A13.34,13.34,0,0,1,951.26,123.29Z"/><path class="cls-1" d="M905.33,114a13.32,13.32,0,1,1,17.59,6.73A13.34,13.34,0,0,1,905.33,114Z"/><path class="cls-1" d="M858.88,107.77a13.32,13.32,0,1,1,18,5.52A13.34,13.34,0,0,1,858.88,107.77Z"/><path class="cls-1" d="M812.12,104.77A13.32,13.32,0,1,1,830.46,109,13.34,13.34,0,0,1,812.12,104.77Z"/><path class="cls-1" d="M765.27,105a13.32,13.32,0,1,1,18.59,3A13.34,13.34,0,0,1,765.27,105Z"/><path class="cls-1" d="M718.53,108.35a13.31,13.31,0,1,1,18.74,1.74A13.33,13.33,0,0,1,718.53,108.35Z"/><path class="cls-1" d="M672.14,114.92a13.31,13.31,0,1,1,18.82.46A13.33,13.33,0,0,1,672.14,114.92Z"/><path class="cls-1" d="M626.3,124.63a13.31,13.31,0,1,1,18.8-.82A13.33,13.33,0,0,1,626.3,124.63Z"/><path class="cls-1" d="M581.22,137.44a13.31,13.31,0,1,1,18.71-2.1A13.34,13.34,0,0,1,581.22,137.44Z"/><path class="cls-1" d="M1457.66,776.11a13.31,13.31,0,1,1-11.91-14.58A13.31,13.31,0,0,1,1457.66,776.11Z"/><path class="cls-1" d="M1454.69,726.75a13.31,13.31,0,1,1-13-13.65A13.31,13.31,0,0,1,1454.69,726.75Z"/><path class="cls-1" d="M1448.05,677.74a13.31,13.31,0,1,1-13.94-12.65A13.32,13.32,0,0,1,1448.05,677.74Z"/><path class="cls-1" d="M1437.81,629.36A13.31,13.31,0,1,1,1423,617.78,13.32,13.32,0,0,1,1437.81,629.36Z"/><path class="cls-1" d="M1424,581.88a13.32,13.32,0,1,1-15.65-10.45A13.32,13.32,0,0,1,1424,581.88Z"/><path class="cls-1" d="M1406.72,535.55a13.32,13.32,0,1,1-16.39-9.26A13.32,13.32,0,0,1,1406.72,535.55Z"/><path class="cls-1" d="M1386,490.63a13.31,13.31,0,1,1-17-8A13.33,13.33,0,0,1,1386,490.63Z"/><path class="cls-1" d="M1362.09,447.37a13.31,13.31,0,1,1-17.58-6.73A13.32,13.32,0,0,1,1362.09,447.37Z"/><path class="cls-1" d="M1335,406a13.32,13.32,0,1,1-18-5.41A13.32,13.32,0,0,1,1335,406Z"/><path class="cls-1" d="M1304.9,366.75a13.31,13.31,0,1,1-18.37-4.05A13.31,13.31,0,0,1,1304.9,366.75Z"/><path class="cls-1" d="M1272,329.85a13.31,13.31,0,1,1-18.63-2.68A13.32,13.32,0,0,1,1272,329.85Z"/><path class="cls-1" d="M1236.42,295.48a13.31,13.31,0,1,1-18.77-1.29A13.31,13.31,0,0,1,1236.42,295.48Z"/><path class="cls-1" d="M1198.41,263.86a13.31,13.31,0,1,1-18.82.11A13.32,13.32,0,0,1,1198.41,263.86Z"/><path class="cls-1" d="M1158.16,235.13a13.32,13.32,0,1,1-18.76,1.5A13.32,13.32,0,0,1,1158.16,235.13Z"/><path class="cls-1" d="M1115.88,209.48a13.31,13.31,0,1,1-18.6,2.88A13.31,13.31,0,0,1,1115.88,209.48Z"/><path class="cls-1" d="M1071.82,187a13.31,13.31,0,1,1-18.33,4.26A13.32,13.32,0,0,1,1071.82,187Z"/><path class="cls-1" d="M1026.21,167.9a13.31,13.31,0,1,1-18,5.61A13.31,13.31,0,0,1,1026.21,167.9Z"/><path class="cls-1" d="M979.32,152.21a13.31,13.31,0,1,1-17.51,6.92A13.31,13.31,0,0,1,979.32,152.21Z"/><path class="cls-1" d="M940.55,138.74a13.31,13.31,0,1,1-16.95,8.2A13.3,13.3,0,0,1,940.55,138.74Z"/><path class="cls-1" d="M1416.24,776.11a13.31,13.31,0,1,1-11.91-14.58A13.32,13.32,0,0,1,1416.24,776.11Z"/><path class="cls-1" d="M1413.11,727.22a13.31,13.31,0,1,1-13-13.6A13.32,13.32,0,0,1,1413.11,727.22Z"/><path class="cls-1" d="M1406.17,678.72a13.32,13.32,0,1,1-14-12.54A13.32,13.32,0,0,1,1406.17,678.72Z"/><path class="cls-1" d="M1395.44,630.92a13.31,13.31,0,1,1-15-11.4A13.32,13.32,0,0,1,1395.44,630.92Z"/><path class="cls-1" d="M1381,584.11a13.32,13.32,0,1,1-15.83-10.19A13.33,13.33,0,0,1,1381,584.11Z"/><path class="cls-1" d="M1363,538.57a13.32,13.32,0,1,1-16.58-8.92A13.33,13.33,0,0,1,1363,538.57Z"/><path class="cls-1" d="M1341.38,494.58a13.32,13.32,0,1,1-17.22-7.59A13.32,13.32,0,0,1,1341.38,494.58Z"/><path class="cls-1" d="M1316.44,452.42a13.32,13.32,0,1,1-17.77-6.22A13.32,13.32,0,0,1,1316.44,452.42Z"/><path class="cls-1" d="M1288.26,412.34a13.32,13.32,0,1,1-18.2-4.8A13.33,13.33,0,0,1,1288.26,412.34Z"/><path class="cls-1" d="M1257,374.6a13.32,13.32,0,1,1-18.53-3.36A13.33,13.33,0,0,1,1257,374.6Z"/><path class="cls-1" d="M1222.94,339.41a13.32,13.32,0,1,1-18.73-1.9A13.33,13.33,0,0,1,1222.94,339.41Z"/><path class="cls-1" d="M1186.2,307a13.32,13.32,0,1,1-18.83-.43A13.32,13.32,0,0,1,1186.2,307Z"/><path class="cls-1" d="M1147,277.58a13.32,13.32,0,1,1-18.79,1A13.33,13.33,0,0,1,1147,277.58Z"/><path class="cls-1" d="M1105.68,251.31a13.32,13.32,0,1,1-18.66,2.51A13.32,13.32,0,0,1,1105.68,251.31Z"/><path class="cls-1" d="M1062.39,228.36a13.32,13.32,0,1,1-18.39,4A13.31,13.31,0,0,1,1062.39,228.36Z"/><path class="cls-1" d="M1017.44,208.87a13.32,13.32,0,1,1-18,5.4A13.31,13.31,0,0,1,1017.44,208.87Z"/><path class="cls-1" d="M971.11,193a13.32,13.32,0,1,1-17.56,6.79A13.31,13.31,0,0,1,971.11,193Z"/><path class="cls-1" d="M923.67,180.74a13.32,13.32,0,1,1-17,8.15A13.31,13.31,0,0,1,923.67,180.74Z"/><path class="cls-1" d="M875.42,172.27a13.32,13.32,0,1,1-16.28,9.45A13.31,13.31,0,0,1,875.42,172.27Z"/><path class="cls-1" d="M826.65,167.6a13.32,13.32,0,1,1-15.49,10.69A13.32,13.32,0,0,1,826.65,167.6Z"/><path class="cls-1" d="M786.1,163.68a13.32,13.32,0,1,1-15.49,10.69A13.31,13.31,0,0,1,786.1,163.68Z"/><path class="cls-1" d="M1374.82,776.11a13.31,13.31,0,1,1-11.92-14.58A13.31,13.31,0,0,1,1374.82,776.11Z"/><path class="cls-1" d="M1371.44,726.92a13.31,13.31,0,1,1-13.1-13.52A13.32,13.32,0,0,1,1371.44,726.92Z"/><path class="cls-1" d="M1363.92,678.19a13.32,13.32,0,1,1-14.2-12.37A13.32,13.32,0,0,1,1363.92,678.19Z"/><path class="cls-1" d="M1352.3,630.28a13.31,13.31,0,1,1-15.19-11.12A13.32,13.32,0,0,1,1352.3,630.28Z"/><path class="cls-1" d="M1336.68,583.51a13.31,13.31,0,1,1-16.08-9.8A13.31,13.31,0,0,1,1336.68,583.51Z"/><path class="cls-1" d="M1317.17,538.23a13.31,13.31,0,1,1-16.84-8.41A13.32,13.32,0,0,1,1317.17,538.23Z"/><path class="cls-1" d="M1293.91,494.76a13.32,13.32,0,1,1-17.5-7A13.33,13.33,0,0,1,1293.91,494.76Z"/><path class="cls-1" d="M1267.07,453.4a13.31,13.31,0,1,1-18-5.45A13.33,13.33,0,0,1,1267.07,453.4Z"/><path class="cls-1" d="M1236.82,414.46a13.31,13.31,0,1,1-18.42-3.91A13.33,13.33,0,0,1,1236.82,414.46Z"/><path class="cls-1" d="M1203.4,378.22a13.32,13.32,0,1,1-18.68-2.34A13.34,13.34,0,0,1,1203.4,378.22Z"/><path class="cls-1" d="M1167,344.92a13.31,13.31,0,1,1-18.8-.75A13.34,13.34,0,0,1,1167,344.92Z"/><path class="cls-1" d="M1128,314.82a13.31,13.31,0,1,1-18.8.83A13.34,13.34,0,0,1,1128,314.82Z"/><path class="cls-1" d="M1086.54,288.12a13.31,13.31,0,1,1-18.67,2.42A13.34,13.34,0,0,1,1086.54,288.12Z"/><path class="cls-1" d="M1043,265a13.31,13.31,0,1,1-18.4,4A13.33,13.33,0,0,1,1043,265Z"/><path class="cls-1" d="M997.64,245.66a13.31,13.31,0,1,1-18,5.53A13.34,13.34,0,0,1,997.64,245.66Z"/><path class="cls-1" d="M950.81,230.21a13.31,13.31,0,1,1-17.46,7A13.35,13.35,0,0,1,950.81,230.21Z"/><path class="cls-1" d="M902.85,218.77A13.31,13.31,0,1,1,886,227.25,13.34,13.34,0,0,1,902.85,218.77Z"/><path class="cls-1" d="M854.1,211.42a13.31,13.31,0,1,1-16,9.87A13.34,13.34,0,0,1,854.1,211.42Z"/><path class="cls-1" d="M804.9,208.21a13.31,13.31,0,1,1-15.15,11.19A13.35,13.35,0,0,1,804.9,208.21Z"/><path class="cls-1" d="M1333.39,776.11a13.31,13.31,0,1,1-11.91-14.58A13.31,13.31,0,0,1,1333.39,776.11Z"/><path class="cls-1" d="M1329.78,727.2a13.31,13.31,0,1,1-13.18-13.44A13.31,13.31,0,0,1,1329.78,727.2Z"/><path class="cls-1" d="M1321.77,678.82a13.32,13.32,0,1,1-14.35-12.19A13.32,13.32,0,0,1,1321.77,678.82Z"/><path class="cls-1" d="M1309.41,631.36A13.31,13.31,0,1,1,1294,620.51,13.32,13.32,0,0,1,1309.41,631.36Z"/><path class="cls-1" d="M1292.81,585.21a13.31,13.31,0,1,1-16.3-9.42A13.32,13.32,0,0,1,1292.81,585.21Z"/><path class="cls-1" d="M1272.11,540.75a13.32,13.32,0,1,1-17.09-7.91A13.32,13.32,0,0,1,1272.11,540.75Z"/><path class="cls-1" d="M1247.49,498.34a13.32,13.32,0,1,1-17.73-6.33A13.33,13.33,0,0,1,1247.49,498.34Z"/><path class="cls-1" d="M1219.12,458.34a13.31,13.31,0,1,1-18.23-4.7A13.32,13.32,0,0,1,1219.12,458.34Z"/><path class="cls-1" d="M1187.25,421.06a13.31,13.31,0,1,1-18.58-3A13.33,13.33,0,0,1,1187.25,421.06Z"/><path class="cls-1" d="M1152.15,386.81a13.31,13.31,0,1,1-18.77-1.34A13.33,13.33,0,0,1,1152.15,386.81Z"/><path class="cls-1" d="M1114.09,355.87a13.31,13.31,0,1,1-18.81.37A13.34,13.34,0,0,1,1114.09,355.87Z"/><path class="cls-1" d="M1073.4,328.51a13.31,13.31,0,1,1-18.71,2.07A13.34,13.34,0,0,1,1073.4,328.51Z"/><path class="cls-1" d="M1030.39,304.93a13.31,13.31,0,1,1-18.45,3.75A13.34,13.34,0,0,1,1030.39,304.93Z"/><path class="cls-1" d="M985.44,285.33a13.31,13.31,0,1,1-18,5.4A13.34,13.34,0,0,1,985.44,285.33Z"/><path class="cls-1" d="M938.89,269.88a13.31,13.31,0,1,1-17.47,7A13.33,13.33,0,0,1,938.89,269.88Z"/><path class="cls-1" d="M891.14,258.7a13.31,13.31,0,1,1-16.77,8.56A13.34,13.34,0,0,1,891.14,258.7Z"/><path class="cls-1" d="M842.58,251.88a13.31,13.31,0,1,1-15.92,10A13.34,13.34,0,0,1,842.58,251.88Z"/><path class="cls-1" d="M793.59,249.48a13.31,13.31,0,1,1-14.94,11.44A13.33,13.33,0,0,1,793.59,249.48Z"/><path class="cls-1" d="M1286.68,764.1a13.32,13.32,0,1,1-18.63,2.73A13.33,13.33,0,0,1,1286.68,764.1Z"/><path class="cls-1" d="M1281.58,715.49a13.32,13.32,0,1,1-18.27,4.55A13.32,13.32,0,0,1,1281.58,715.49Z"/><path class="cls-1" d="M1271.72,667.63a13.31,13.31,0,1,1-17.74,6.32A13.32,13.32,0,0,1,1271.72,667.63Z"/><path class="cls-1" d="M1257.18,621a13.31,13.31,0,1,1-17,8A13.32,13.32,0,0,1,1257.18,621Z"/><path class="cls-1" d="M1238.14,576a13.31,13.31,0,1,1-16.15,9.67A13.32,13.32,0,0,1,1238.14,576Z"/><path class="cls-1" d="M1214.75,533a13.31,13.31,0,1,1-15.12,11.21A13.32,13.32,0,0,1,1214.75,533Z"/><path class="cls-1" d="M1187.25,492.64a13.31,13.31,0,1,1-13.94,12.65A13.32,13.32,0,0,1,1187.25,492.64Z"/><path class="cls-1" d="M1155.91,455.15a13.31,13.31,0,1,1-12.63,14A13.32,13.32,0,0,1,1155.91,455.15Z"/><path class="cls-1" d="M1121,420.91A13.31,13.31,0,1,1,1109.84,436,13.32,13.32,0,0,1,1121,420.91Z"/><path class="cls-1" d="M1083,390.28a13.31,13.31,0,1,1-9.65,16.17A13.31,13.31,0,0,1,1083,390.28Z"/><path class="cls-1" d="M1042,363.54a13.31,13.31,0,1,1-8,17A13.31,13.31,0,0,1,1042,363.54Z"/><path class="cls-1" d="M998.69,341a13.31,13.31,0,1,1-6.29,17.74A13.32,13.32,0,0,1,998.69,341Z"/><path class="cls-1" d="M953.34,322.77A13.31,13.31,0,1,1,948.82,341,13.32,13.32,0,0,1,953.34,322.77Z"/><path class="cls-1" d="M906.41,309.12a13.31,13.31,0,1,1-2.7,18.63A13.32,13.32,0,0,1,906.41,309.12Z"/><path class="cls-1" d="M858.37,300.16a13.31,13.31,0,1,1-.86,18.81A13.32,13.32,0,0,1,858.37,300.16Z"/><path class="cls-1" d="M807.06,296a13.31,13.31,0,1,1,1,18.8A13.32,13.32,0,0,1,807.06,296Z"/><path class="cls-1" d="M336.89,763.5a13.31,13.31,0,1,1-3,18.58A13.33,13.33,0,0,1,336.89,763.5Z"/><path class="cls-1" d="M342.23,716.63a13.31,13.31,0,1,1-4.88,18.18A13.33,13.33,0,0,1,342.23,716.63Z"/><path class="cls-1" d="M352.38,670.57a13.31,13.31,0,1,1-6.75,17.57A13.33,13.33,0,0,1,352.38,670.57Z"/><path class="cls-1" d="M367.24,625.8a13.31,13.31,0,1,1-8.52,16.78A13.32,13.32,0,0,1,367.24,625.8Z"/><path class="cls-1" d="M386.66,582.81a13.31,13.31,0,1,1-10.21,15.8A13.32,13.32,0,0,1,386.66,582.81Z"/><path class="cls-1" d="M410.41,542.06a13.31,13.31,0,1,1-11.79,14.67A13.32,13.32,0,0,1,410.41,542.06Z"/><path class="cls-1" d="M438.25,504A13.31,13.31,0,1,1,425,517.35,13.32,13.32,0,0,1,438.25,504Z"/><path class="cls-1" d="M469.88,469a13.31,13.31,0,1,1-14.55,11.93A13.32,13.32,0,0,1,469.88,469Z"/><path class="cls-1" d="M507.82,433.82a13.31,13.31,0,1,1-15.71,10.36A13.33,13.33,0,0,1,507.82,433.82Z"/><path class="cls-1" d="M550.09,401.86a13.31,13.31,0,1,1-16.7,8.68A13.33,13.33,0,0,1,550.09,401.86Z"/><path class="cls-1" d="M599.63,375.6a13.31,13.31,0,1,1-17.52,6.9A13.33,13.33,0,0,1,599.63,375.6Z"/><path class="cls-1" d="M647,356.31a13.31,13.31,0,1,1-18.13,5.05A13.32,13.32,0,0,1,647,356.31Z"/><path class="cls-1" d="M693.81,344.83A13.31,13.31,0,1,1,675.25,348,13.32,13.32,0,0,1,693.81,344.83Z"/><path class="cls-1" d="M738.81,334.15A13.31,13.31,0,1,1,720,335.37,13.32,13.32,0,0,1,738.81,334.15Z"/><path class="cls-1" d="M787.65,332.21a13.31,13.31,0,1,1-18.8-.73A13.33,13.33,0,0,1,787.65,332.21Z"/><path class="cls-1" d="M838.08,334.5a13.31,13.31,0,1,1-18.63-2.66A13.32,13.32,0,0,1,838.08,334.5Z"/><path class="cls-1" d="M882.84,342.56A13.31,13.31,0,1,1,864.58,338,13.33,13.33,0,0,1,882.84,342.56Z"/><path class="cls-1" d="M929.27,352.28a13.31,13.31,0,1,1-17.69-6.44A13.33,13.33,0,0,1,929.27,352.28Z"/><path class="cls-1" d="M975,371a13.31,13.31,0,1,1-16.92-8.24A13.32,13.32,0,0,1,975,371Z"/><path class="cls-1" d="M1017.85,391a13.31,13.31,0,1,1-16-9.94A13.32,13.32,0,0,1,1017.85,391Z"/><path class="cls-1" d="M1057.47,418.69a13.31,13.31,0,1,1-14.87-11.54A13.32,13.32,0,0,1,1057.47,418.69Z"/><path class="cls-1" d="M1092.73,445.89a13.31,13.31,0,1,1-13.59-13A13.31,13.31,0,0,1,1092.73,445.89Z"/><path class="cls-1" d="M1129.56,480.86a13.31,13.31,0,1,1-12.18-14.35A13.32,13.32,0,0,1,1129.56,480.86Z"/><path class="cls-1" d="M1157.76,516.71a13.31,13.31,0,1,1-10.63-15.53A13.32,13.32,0,0,1,1157.76,516.71Z"/><path class="cls-1" d="M1181,554.94a13.31,13.31,0,1,1-9-16.54A13.31,13.31,0,0,1,1181,554.94Z"/><path class="cls-1" d="M1202.61,596.77a13.31,13.31,0,1,1-7.22-17.38A13.33,13.33,0,0,1,1202.61,596.77Z"/><path class="cls-1" d="M1223.5,644.72a13.31,13.31,0,1,1-5.38-18A13.32,13.32,0,0,1,1223.5,644.72Z"/><path class="cls-1" d="M1233.32,689.28a13.31,13.31,0,1,1-3.49-18.5A13.33,13.33,0,0,1,1233.32,689.28Z"/><path class="cls-1" d="M1242.37,736.83a13.31,13.31,0,1,1-1.54-18.75A13.32,13.32,0,0,1,1242.37,736.83Z"/><path class="cls-1" d="M1250.55,776.11a13.31,13.31,0,1,1-11.91-14.58A13.31,13.31,0,0,1,1250.55,776.11Z"/><path class="cls-1" d="M1580.85,776.1a13.31,13.31,0,1,1-11.92-14.58A13.32,13.32,0,0,1,1580.85,776.1Z"/><path class="cls-1" d="M1578.56,729.49a13.31,13.31,0,1,1-12.75-13.85A13.33,13.33,0,0,1,1578.56,729.49Z"/><path class="cls-1" d="M1573.52,683.09A13.32,13.32,0,1,1,1560,670,13.33,13.33,0,0,1,1573.52,683.09Z"/><path class="cls-1" d="M1565.74,637.07a13.31,13.31,0,1,1-14.3-12.25A13.32,13.32,0,0,1,1565.74,637.07Z"/><path class="cls-1" d="M1555.27,591.6a13.32,13.32,0,1,1-15-11.38A13.33,13.33,0,0,1,1555.27,591.6Z"/><path class="cls-1" d="M1542.11,546.82a13.31,13.31,0,1,1-15.65-10.48A13.33,13.33,0,0,1,1542.11,546.82Z"/><path class="cls-1" d="M1526.34,502.9a13.31,13.31,0,1,1-16.24-9.54A13.33,13.33,0,0,1,1526.34,502.9Z"/><path class="cls-1" d="M1508,460a13.31,13.31,0,1,1-16.77-8.56A13.31,13.31,0,0,1,1508,460Z"/><path class="cls-1" d="M1487.15,418.23a13.31,13.31,0,1,1-17.24-7.55A13.32,13.32,0,0,1,1487.15,418.23Z"/><path class="cls-1" d="M1463.88,377.77a13.31,13.31,0,1,1-17.66-6.52A13.32,13.32,0,0,1,1463.88,377.77Z"/><path class="cls-1" d="M1438.26,338.77a13.32,13.32,0,1,1-18-5.47A13.32,13.32,0,0,1,1438.26,338.77Z"/><path class="cls-1" d="M1410.37,301.35a13.31,13.31,0,1,1-18.3-4.39A13.32,13.32,0,0,1,1410.37,301.35Z"/><path class="cls-1" d="M1380.33,265.64a13.31,13.31,0,1,1-18.54-3.3A13.32,13.32,0,0,1,1380.33,265.64Z"/><path class="cls-1" d="M1348.22,231.76a13.31,13.31,0,1,1-18.69-2.2A13.32,13.32,0,0,1,1348.22,231.76Z"/><path class="cls-1" d="M1314.17,199.85a13.31,13.31,0,1,1-18.78-1.09A13.31,13.31,0,0,1,1314.17,199.85Z"/><path class="cls-1" d="M1278.29,170a13.31,13.31,0,1,1-18.81,0A13.31,13.31,0,0,1,1278.29,170Z"/><path class="cls-1" d="M1240.71,142.32a13.31,13.31,0,1,1-18.79,1.14A13.32,13.32,0,0,1,1240.71,142.32Z"/><path class="cls-1" d="M1201.57,116.91a13.32,13.32,0,1,1-18.69,2.25A13.33,13.33,0,0,1,1201.57,116.91Z"/><path class="cls-1" d="M1155.8,91.42a13.32,13.32,0,1,1-18.53,3.35A13.33,13.33,0,0,1,1155.8,91.42Z"/><path class="cls-1" d="M1522.74,762.34a13.31,13.31,0,1,1-7.7,17.18A13.31,13.31,0,0,1,1522.74,762.34Z"/><path class="cls-1" d="M1519.38,715.71a13.31,13.31,0,1,1-6.58,17.64A13.32,13.32,0,0,1,1519.38,715.71Z"/><path class="cls-1" d="M1513.05,669.38a13.31,13.31,0,1,1-5.44,18A13.31,13.31,0,0,1,1513.05,669.38Z"/><path class="cls-1" d="M1503.78,623.55a13.31,13.31,0,1,1-4.28,18.33A13.31,13.31,0,0,1,1503.78,623.55Z"/><path class="cls-1" d="M1491.6,578.41a13.31,13.31,0,1,1-3.1,18.57A13.32,13.32,0,0,1,1491.6,578.41Z"/><path class="cls-1" d="M1476.57,534.14a13.31,13.31,0,1,1-1.91,18.73A13.31,13.31,0,0,1,1476.57,534.14Z"/><path class="cls-1" d="M1458.72,490.92a13.32,13.32,0,1,1-.69,18.81A13.32,13.32,0,0,1,1458.72,490.92Z"/><path class="cls-1" d="M1438.17,448.93a13.31,13.31,0,1,1,.5,18.82A13.31,13.31,0,0,1,1438.17,448.93Z"/><path class="cls-1" d="M1415,408.34a13.31,13.31,0,1,1,1.7,18.75A13.31,13.31,0,0,1,1415,408.34Z"/><path class="cls-1" d="M1389.23,369.31a13.31,13.31,0,1,1,2.89,18.6A13.31,13.31,0,0,1,1389.23,369.31Z"/><path class="cls-1" d="M1361,332a13.32,13.32,0,1,1,4.08,18.38A13.31,13.31,0,0,1,1361,332Z"/><path class="cls-1" d="M1330.54,296.58a13.31,13.31,0,1,1,5.24,18.08A13.32,13.32,0,0,1,1330.54,296.58Z"/><path class="cls-1" d="M1297.83,263.17a13.31,13.31,0,1,1,6.39,17.71A13.33,13.33,0,0,1,1297.83,263.17Z"/><path class="cls-1" d="M1263.06,231.91a13.31,13.31,0,1,1,7.5,17.26A13.3,13.3,0,0,1,1263.06,231.91Z"/><path class="cls-1" d="M1226.36,202.95a13.31,13.31,0,1,1,8.58,16.75A13.3,13.3,0,0,1,1226.36,202.95Z"/><path class="cls-1" d="M1187.89,176.38a13.31,13.31,0,1,1,9.64,16.16A13.3,13.3,0,0,1,1187.89,176.38Z"/><path class="cls-1" d="M1147.8,152.33a13.31,13.31,0,1,1,10.65,15.51A13.3,13.3,0,0,1,1147.8,152.33Z"/><path class="cls-1" d="M1106.25,130.88a13.31,13.31,0,1,1,11.61,14.8A13.3,13.3,0,0,1,1106.25,130.88Z"/></g></g></svg>