<?xml version="1.0" encoding="utf-8"?>
<!-- Generator: Adobe Illustrator 21.1.0, SVG Export Plug-In . SVG Version: 6.00 Build 0)  -->
<svg version="1.1" xmlns="http://www.w3.org/2000/svg" xmlns:xlink="http://www.w3.org/1999/xlink" x="0px" y="0px"
	 viewBox="0 0 1076 456" style="enable-background:new 0 0 1076 456;" xml:space="preserve">
<style type="text/css">
	.st0{fill:#2F352F;}
	.st1{opacity:0.5;}
	.st2{fill:#FFFFFF;}
	.st3{fill:#296934;}
	.st4{fill:none;stroke:#525F53;stroke-width:1.1569;stroke-linecap:round;stroke-miterlimit:10;}
	.st5{fill:#328540;}
	.st6{fill:#E9E9EA;}
	.st7{fill:#D1D3D4;}
	.st8{fill:#E8E8E8;}
	.st9{fill:#525F53;}
	.st10{fill:none;stroke:#525F53;stroke-width:1.1569;stroke-miterlimit:10;}
	.st11{fill:none;stroke:#525F53;stroke-width:0.5784;stroke-miterlimit:10;}
	.st12{fill:#749176;}
	.st13{fill:#95B296;}
</style>
<g id="_xAA__x2260__x221E_Â_xB5_ƒ_x2264_Œø_xBA_œ_xFB02_">
</g>
<g id="Õ_xBA__x2264__x201E__x5F_1">
	<g>
		<g>
			<polygon class="st0" points="845.3,234.5 359.3,234.5 356.5,237.4 356.7,244.7 295.6,244.7 295.6,234.5 230.7,234.5 0,377.4 
				0,456 1076,456 1076,377.4 1076,377.4 			"/>
			<g class="st1">
				<polygon class="st2" points="645.2,237.4 663.2,269.9 621.5,269.9 605.7,269.9 480.6,269.9 483.5,258.2 458.8,258.2 
					449.2,284.2 373.4,284.2 361.6,301.4 283.4,301.4 264.7,320.2 192.2,320.2 184.5,326.4 346.1,326.4 330.3,349.7 439,349.7 
					441.3,342.4 369.6,342.4 382.1,320.2 296.5,320.2 308.4,306.7 452.9,306.7 454.6,301.4 391.2,301.4 398.4,288.8 539,288.8 
					539,284.2 476.9,284.2 479.5,274 596.5,274 604.1,304 634.1,304 623,274 691.9,274 674.5,247.9 791.6,247.9 787.5,244.7 
					672.3,244.7 667.5,237.4 827.7,237.4 856.2,256.4 723.7,256.4 748,284.2 671.1,284.2 682.1,304 712.1,304 701.9,288.8 
					780.2,288.8 751.8,260.1 861.7,260.1 951.8,320.2 811.3,320.2 797.9,306.7 879.9,306.7 834.6,271.9 808.3,271.9 843.3,301.4 
					763,301.4 779.5,320.2 608.3,320.2 614.8,346 649.6,346 642.4,326.4 694.5,326.4 705.4,346 740.2,346 727.1,326.4 961.1,326.4 
					1024.7,368.9 859.4,368.9 839.8,349 921,349 912,341.8 798.4,341.8 822,368.9 739,368.9 744.3,377.4 829.5,377.4 848.7,377.4 
					1076,377.4 845.3,234.5 359.3,234.5 356.5,237.4 				"/>
				<polygon class="st2" points="0,377.4 636.3,377.4 633.7,368.9 558,368.9 554,304 524.1,304 523.2,320.2 448.5,320.2 
					446.5,326.4 522.9,326.4 520.6,368.9 254,368.9 274,346 239.2,346 216.5,368.9 51.3,368.9 80.1,349.7 155.4,349.7 164.4,342.4 
					90.9,342.4 144.4,306.7 224.3,306.7 245.6,288.8 324,288.8 337.1,273.8 407,273.8 415.8,258.2 391.2,258.2 383.3,269.7 
					327.7,269.7 314.7,269.7 268.5,269.7 282.2,258.2 257.5,258.2 237.2,273.8 310.7,273.8 300.4,284.2 223.5,284.2 201,301.4 
					152.5,301.4 232.6,247.9 336.3,247.9 326,258.2 350.7,258.2 359.8,247.9 527.1,247.9 526.4,260.1 617.8,260.1 612.7,246.3 
					589.4,246.3 592,256.4 551.1,256.4 550.4,244.7 237.4,244.7 248.3,237.4 291.9,237.4 295.6,234.5 230.7,234.5 				"/>
			</g>
		</g>
	</g>
	<g>
		<path class="st3" d="M394.9,74.5c0,0,8.2,1.3,10.2-9.6l2.4-8.8c0,0,0.7,26.2-15.9,48.8c-0.9-4.4-2.9-20.5-2.9-20.5L394.9,74.5z"/>
		<g>
			<line class="st4" x1="340.8" y1="163.3" x2="338.4" y2="178.4"/>
			<line class="st4" x1="345.2" y1="163.3" x2="348.3" y2="181"/>
			<g>
				<path class="st5" d="M328.8,203.8h29v-0.7l-1.7,0v-4.3h1.7V198h-29c-0.6,0-1.1,0.5-1.1,1.1v3.5
					C327.6,203.2,328.1,203.8,328.8,203.8z"/>
				<path class="st6" d="M340.6,203h16.3c0,0-0.5-0.5-0.5-2.1c0-1.6,0.5-2.1,0.5-2.1h-16.3c-0.5,0-1,0.4-1,1v2.3
					C339.6,202.6,340.1,203,340.6,203z"/>
				<path class="st5" d="M364.7,198h-30.9v-0.7h1.7v-6.2h-1.7v-0.7h30.9c0.6,0,1.1,0.5,1.1,1.1v5.4C365.9,197.5,365.3,198,364.7,198
					z"/>
				<path class="st6" d="M350.6,197.3H335c0,0,0.5-1.6,0.5-3.1c0-1.6-0.5-3.1-0.5-3.1h15.6c0.5,0,0.9,0.4,0.9,0.9v4.3
					C351.5,196.9,351.1,197.3,350.6,197.3z"/>
				<path class="st5" d="M361.7,185.2h-39.2v-0.7h1.7v-6.2h-1.7v-0.7h39.2c0.6,0,1.1,0.5,1.1,1.1v5.4
					C362.8,184.7,362.3,185.2,361.7,185.2z"/>
				<path class="st6" d="M339.3,184.5h-15.6c0,0,0.5-1.6,0.5-3.1c0-1.6-0.5-3.1-0.5-3.1h15.6c0.5,0,0.9,0.4,0.9,0.9v4.3
					C340.2,184.1,339.8,184.5,339.3,184.5z"/>
				<path class="st5" d="M326.9,174h39.2v0.7H365v2.2h1.1v0.7h-39.2c-0.6,0-1.1-0.5-1.1-1.1v-1.3C325.8,174.5,326.3,174,326.9,174z"
					/>
				<path class="st6" d="M349.3,174.7h16.2c0,0-0.2,0.2-0.2,1.1c0,0.7,0.2,1.1,0.2,1.1h-16.2c-0.5,0-0.9-0.4-0.9-0.9v-0.3
					C348.4,175.1,348.8,174.7,349.3,174.7z"/>
				<g>
					<path class="st5" d="M326.6,211.3h34.5v-0.7h-1.7v-6.2h1.7v-0.7h-34.5c-0.6,0-1.1,0.5-1.1,1.1v5.4
						C325.4,210.8,326,211.3,326.6,211.3z"/>
					<path class="st7" d="M347.2,210.6h12.7c0,0-0.5-1.6-0.5-3.1c0-1.6,0.5-3.1,0.5-3.1h-12.7C346.3,207,346.9,209.7,347.2,210.6z"
						/>
					<path class="st8" d="M327.6,210.6h20.1c-0.3-1-0.9-3.7,0-6.2h-20c-0.5,0-0.9,0.4-0.9,0.9v4.3
						C326.6,210.2,327,210.6,327.6,210.6z"/>
				</g>
				<path class="st5" d="M325.5,190.4h38.8v-0.7h-1.7v-3.8h1.7v-0.7h-38.8c-0.6,0-1.1,0.5-1.1,1.1v2.9
					C324.3,189.9,324.8,190.4,325.5,190.4z"/>
				<path class="st7" d="M350.4,189.7h12.7c0,0-0.5-0.3-0.5-1.9c0-1.6,0.5-1.9,0.5-1.9h-12.7C349.4,188.5,350.1,188.7,350.4,189.7z"
					/>
				<path class="st8" d="M326,189.7h24.4c-0.3-1-0.5-2,0-3.8H326c-0.5,0-0.9,0.4-0.9,0.9v1.9C325.1,189.3,325.5,189.7,326,189.7z"/>
			</g>
			<rect x="342.4" y="160" class="st9" width="2.8" height="3.2"/>
			<polyline class="st10" points="356.1,149.8 348.1,163.3 339.2,163.3 337.5,160.9 			"/>
			<line class="st11" x1="346.8" y1="163.3" x2="352.2" y2="149"/>
			<polygon class="st12" points="329.1,150.5 337.4,161.3 344.9,161.3 353.6,149 			"/>
			<path class="st13" d="M395.3,24c-22.7-15.4-48.5-13.4-52.8-13.6c-4.5,0.2-30.1-1.8-52.8,13.6c-13.7,9.3-18.4,26.9-15.9,45
				c2,14.7,10.1,28.8,20.5,40c23.2,24.9,34.8,41.6,34.8,41.6h12.7h1.3h12.7c0,0,12.2-16.8,36.2-40.8C421.8,80,420.2,40.9,395.3,24z"
				/>
			<path class="st12" d="M387.8,74.5c-19.5,5.3-47.9,5.4-71-3.7c-21.7-8.6-28.2-20.8-29.4-30.6c-0.3-2.6-3.2-5.3-2.8-7.5
				c0.9-5.4,5.2-8.8,5.2-8.8c-24.9,16.9-24.1,58.5,3.1,85.7c24,24.1,36.2,40.8,36.2,40.8h12.7h1.3h12.7c0,0,11-14.3,32.1-40.9
				C404.2,89.2,403.1,70.4,387.8,74.5z"/>
			<path class="st12" d="M314.1,18.1c-0.9,0.8-1.7,1.6-2.5,2.4c-2,2-3.7,4.3-5.3,6.6c-0.7,1.1-1.4,2.3-2,3.4
				c-0.6,1.2-1.2,2.4-1.7,3.6c-0.5,1.2-1,2.5-1.3,3.7c-0.4,1.3-0.7,2.5-1,3.8c-0.3,1.3-0.5,2.6-0.7,3.9c-0.2,1.3-0.3,2.6-0.4,3.9
				c-0.1,1.3-0.1,2.6-0.1,4c0,0.7,0,1.3,0,2c0,0.7,0,1.3,0.1,2c0.1,1.3,0.2,2.7,0.3,4l0.2,2l0.3,2l0-0.1c0.4,1.5,0.9,3.1,1.3,4.7
				c0.5,1.6,0.9,3.1,1.4,4.7c0.5,1.6,1,3.1,1.5,4.6l0.8,2.3l0.8,2.3l0.8,2.3l0.8,2.3c0.5,1.5,1.1,3.1,1.7,4.6
				c0.6,1.5,1.1,3.1,1.7,4.6c0.6,1.5,1.2,3,1.8,4.6c0.6,1.5,1.2,3,1.8,4.5l0.9,2.3l1,2.3l1.9,4.5l2,4.5l1,2.3c0.3,0.8,0.7,1.5,1,2.2
				l2,4.5c0.7,1.5,1.4,3,2.1,4.5l2.1,4.5l-2.5-4.2c-0.8-1.4-1.7-2.8-2.5-4.3l-2.4-4.3c-0.8-1.4-1.6-2.9-2.3-4.4l-2.2-4.4l-2.2-4.4
				l-1.1-2.2l-1-2.2c-0.7-1.5-1.4-3-2-4.5c-0.7-1.5-1.3-3-1.9-4.5c-0.6-1.5-1.2-3-1.9-4.6c-0.6-1.5-1.2-3.1-1.8-4.6
				c-0.6-1.5-1.2-3.1-1.7-4.6l-0.8-2.3l-0.8-2.3c-0.5-1.6-1.1-3.1-1.6-4.7c-0.5-1.6-1-3.1-1.5-4.7c-0.5-1.6-0.9-3.2-1.3-4.8l0-0.1
				l0-0.1l-0.3-2.1l-0.2-2.1c-0.1-1.4-0.2-2.8-0.3-4.2c-0.1-1.4-0.1-2.8,0-4.2c0-1.4,0.1-2.8,0.2-4.2c0.1-1.4,0.3-2.8,0.6-4.1
				c0.2-1.4,0.5-2.7,0.9-4.1c0.3-1.4,0.8-2.7,1.2-4c0.5-1.3,1-2.6,1.6-3.9c1.2-2.5,2.6-5,4.2-7.2c1.6-2.2,3.5-4.3,5.5-6.2
				c3.1-2.8,6.8-5.2,10.6-7C318.8,14.1,317.2,15.4,314.1,18.1z"/>
			<path class="st12" d="M334,10.5c0,0-0.5,0.2-1.2,0.8c-0.8,0.6-1.8,1.6-3,3c-1.2,1.4-2.4,3.2-3.6,5.4c-1.2,2.2-2.2,4.9-3.1,7.8
				c-0.9,3-1.6,6.3-2.1,9.8c-0.5,3.5-0.8,7.3-0.9,11.2c-0.1,3.9,0,7.9,0.2,12c0.3,4.1,0.6,8.2,1.1,12.4c0.1,1,0.2,2.1,0.4,3.1
				c0.1,1,0.3,2.1,0.4,3.1l0.2,1.5l0.1,0.4l0.1,0.4l0.1,0.8c0.2,1,0.3,2.1,0.5,3.1c0.2,1,0.4,2,0.6,3c0.2,1,0.4,2,0.6,3
				c0.4,2,0.9,3.9,1.3,5.8c0.9,3.8,1.8,7.5,2.7,11c0.9,3.5,1.8,6.8,2.6,9.8c0.8,3.1,1.6,5.8,2.2,8.3c0.7,2.5,1.2,4.6,1.7,6.4
				c0.5,1.8,0.8,3.2,1.1,4.2c0.2,1,0.4,1.5,0.4,1.5s-0.2-0.5-0.6-1.4c-0.4-0.9-0.9-2.3-1.6-4c-0.7-1.7-1.5-3.8-2.3-6.2
				c-0.4-1.2-0.9-2.5-1.4-3.8c-0.5-1.4-1-2.8-1.5-4.3c-1-3-2.1-6.2-3.2-9.7c-1.1-3.5-2.2-7.1-3.2-11c-0.5-1.9-1-3.9-1.5-5.9
				c-0.5-2-0.9-4-1.3-6.1c-0.2-1-0.4-2.1-0.6-3.1l-0.1-0.8l-0.1-0.4l-0.1-0.4l-0.2-1.6c-0.2-1-0.3-2.1-0.5-3.1
				c-0.1-1-0.3-2.1-0.4-3.2c-0.5-4.2-0.8-8.5-1-12.6c0-2.1-0.1-4.2-0.1-6.2c0-1,0-2.1,0.1-3.1c0-1,0.1-2,0.1-3
				c0.3-4,0.8-7.8,1.5-11.5c0.2-0.9,0.4-1.8,0.6-2.7c0.2-0.9,0.4-1.7,0.7-2.6c0.3-0.8,0.5-1.6,0.8-2.4c0.3-0.8,0.6-1.6,0.8-2.3
				c1.1-3,2.5-5.7,3.9-7.9c1.4-2.2,2.9-3.9,4.3-5.2c1.3-1.3,2.6-2.1,3.4-2.6C333.5,10.6,334,10.5,334,10.5z"/>
			<path class="st12" d="M343.1,18.2c0,0,0.1,0.5,0.2,1.3c0.1,0.9,0.3,2.2,0.5,3.8c0.2,1.6,0.4,3.6,0.6,5.9c0.2,2.3,0.5,4.9,0.7,7.7
				c0.2,2.8,0.5,5.9,0.6,9.1c0.2,3.2,0.4,6.6,0.5,10.1c0.2,3.5,0.3,7.2,0.3,10.9c0.1,3.7,0.1,7.5,0.2,11.2c0,3.8,0,7.5-0.1,11.2
				c0,1.8,0,3.7-0.1,5.5c-0.1,1.8-0.1,3.6-0.2,5.4c-0.1,3.5-0.3,6.9-0.4,10.1c-0.1,1.6-0.1,3.2-0.2,4.7c-0.1,1.5-0.2,3-0.3,4.4
				c-0.2,2.8-0.4,5.4-0.6,7.7c-0.2,2.3-0.4,4.3-0.5,5.9c-0.1,1.6-0.3,2.9-0.4,3.8c-0.1,0.9-0.1,1.3-0.1,1.3s0-0.5-0.1-1.4
				c0-0.9-0.1-2.2-0.2-3.8c-0.1-1.6-0.1-3.6-0.2-5.9c-0.1-2.3-0.1-4.9-0.1-7.7c0-2.8-0.1-5.9-0.1-9.1c0-3.2-0.1-6.6-0.1-10.1
				c0-1.8,0-3.5,0-5.4c0-1.8,0-3.6-0.1-5.5c0-3.7,0-7.4,0-11.2c0-3.7,0-7.5,0-11.2c0-1.8,0-3.7,0-5.5c0-1.8,0-3.6,0-5.3
				c0-3.5,0-6.9,0-10.1c0-3.2,0-6.3,0-9.1c0-2.8,0-5.4,0-7.7c0-2.3,0-4.3,0-5.9c0-1.6,0-2.9,0-3.8C343.1,18.7,343.1,18.2,343.1,18.2
				z"/>
			<path class="st12" d="M357.7,15.2c0,0,0.3,0.4,1,1c0.6,0.7,1.5,1.8,2.5,3.2c1,1.5,2.1,3.3,3.2,5.5c1.1,2.2,2.1,4.8,2.9,7.7
				c0.9,2.9,1.6,6.1,2.1,9.6c0.5,3.4,0.9,7.1,1,10.9c0,0.9,0,1.9,0.1,2.9c0,0.5,0,1,0,1.4c0,0.5,0,1,0,1.5c0,1,0,2,0,2.9
				c-0.1,1-0.1,2-0.2,3c0,1-0.1,2-0.2,3c-0.1,1-0.2,2-0.3,3c-0.1,1-0.2,2-0.3,3c-0.1,1-0.2,2-0.4,3c-0.3,2-0.6,4-0.9,6
				c-0.2,1-0.3,2-0.5,3c-0.2,1-0.4,1.9-0.6,2.9c-0.2,1-0.4,1.9-0.6,2.9c-0.2,1-0.4,1.9-0.7,2.8c-0.2,0.9-0.4,1.9-0.6,2.8
				c-0.2,0.9-0.5,1.8-0.7,2.8c-0.9,3.6-2,7.1-2.9,10.4c-1,3.3-2,6.4-3,9.2c-0.5,1.4-1,2.8-1.4,4.1c-0.5,1.3-0.9,2.5-1.4,3.6
				c-0.4,1.1-0.8,2.2-1.2,3.2c-0.4,1-0.8,1.9-1.1,2.7c-0.7,1.6-1.2,2.9-1.6,3.7c-0.4,0.9-0.6,1.3-0.6,1.3s0.1-0.5,0.4-1.4
				c0.2-0.9,0.6-2.2,1.1-3.9c0.5-1.7,1-3.7,1.7-6.1c0.3-1.2,0.7-2.4,1-3.7c0.3-1.3,0.7-2.7,1.1-4.1c0.4-1.4,0.8-2.9,1.2-4.5
				c0.4-1.6,0.8-3.2,1.2-4.8c0.8-3.3,1.6-6.8,2.4-10.5c0.4-1.8,0.8-3.7,1.2-5.5c0.2-0.9,0.4-1.9,0.6-2.8c0.2-0.9,0.4-1.9,0.5-2.9
				c0.2-1,0.4-1.9,0.5-2.9c0.2-1,0.3-1.9,0.5-2.9c0.3-1.9,0.6-3.9,0.9-5.9c0.2-1,0.3-2,0.4-2.9c0.1-1,0.2-2,0.3-2.9
				c0.1-1,0.2-2,0.3-2.9c0.1-1,0.2-1.9,0.2-2.9c0.3-3.9,0.5-7.7,0.5-11.4c0-3.7-0.2-7.2-0.5-10.6c-0.1-0.8-0.2-1.7-0.3-2.5
				c-0.1-0.8-0.2-1.6-0.3-2.4c-0.1-0.8-0.3-1.6-0.4-2.3c-0.1-0.8-0.3-1.5-0.4-2.2c-0.6-2.9-1.4-5.5-2.2-7.7
				c-0.8-2.2-1.7-4.2-2.5-5.7c-0.8-1.5-1.5-2.7-2-3.5C358,15.6,357.7,15.2,357.7,15.2z"/>
			<path class="st12" d="M379.4,22.3c2.5,2.6,10.7,13.6,11.9,29c0.1,1.1,0.1,2.2,0.2,3.3c0,1.1,0,2.2,0,3.3c0,1.1,0,2.2-0.1,3.3
				c-0.2,4.5-0.9,9-1.9,13.4c-1,4.4-2.3,8.8-3.8,12.9c-1.5,4.2-3.2,8.2-4.9,12.1c-1.7,3.8-3.6,7.5-5.4,10.9
				c-1.8,3.4-3.7,6.5-5.4,9.4c-1.7,2.9-3.4,5.4-5,7.7c-1.5,2.3-2.9,4.2-4.1,5.8c-1.2,1.6-2.1,2.8-2.7,3.6c-0.6,0.8-1,1.3-1,1.3
				s0.3-0.5,0.9-1.4c0.6-0.9,1.4-2.2,2.4-3.9c1-1.7,2.2-3.7,3.6-6.1c1.4-2.4,2.8-5,4.4-8c1.6-2.9,3.2-6.2,4.9-9.6
				c1.7-3.4,3.3-7.1,5-10.9c1.6-3.8,3.2-7.8,4.5-11.9c1.4-4.1,2.6-8.3,3.6-12.6c0.9-4.3,1.7-8.6,1.9-12.9
				C389.1,47.3,387,32.9,379.4,22.3z"/>
			<path class="st12" d="M393.9,27.9c1.4,1.2,12.6,8.5,14.5,28.2c1.4,15.5-3.4,26.9-7.4,35.4c-4.8,10.3-13,19.9-20.1,28.7
				c-2.3,2.8-4.5,5.3-6.5,7.5c-2,2.2-3.8,4-5.3,5.5c-1.5,1.5-2.7,2.6-3.6,3.4c-0.8,0.8-1.3,1.2-1.3,1.2s0.4-0.4,1.2-1.3
				c0.8-0.8,1.9-2.1,3.3-3.6c1.4-1.6,3.1-3.5,4.9-5.8c1.9-2.3,3.9-4.9,6.1-7.8c2.1-2.9,4.4-6.1,6.7-9.5c2.3-3.4,4.5-7.2,6.6-11.1
				c2.1-3.9,4.1-8.1,5.9-12.5c1.8-4.3,4-8.8,5-13.4c1.5-6.9,2.7-15.8,0.3-27.4C401.9,34.4,393.8,27.9,393.9,27.9z"/>
			<path class="st12" d="M311.2,14.7c-1.9,0.9-4.2,2-6.7,3.6c-2.4,1.6-5,3.6-7.5,6.2c-2.5,2.6-4.8,5.7-6.8,9.2
				c-2,3.5-3.5,7.6-4.6,11.9c-1.1,4.3-1.6,8.9-1.8,13.6c0,0.6,0,1.2,0,1.8l0,0.9l0,0.2l0,0.2l0,0.5c0,0.6,0,1.2,0,1.8
				c0,0.6,0.1,1.1,0.2,1.7c0.1,1.1,0.3,2.3,0.5,3.4c0.1,0.6,0.2,1.2,0.4,1.7l0.4,1.7c1.2,4.6,2.9,9.1,4.9,13.4
				c2,4.3,4.1,8.5,6.3,12.4c2.2,3.9,4.4,7.7,6.7,11.2c2.2,3.5,4.4,6.8,6.4,9.8c4.1,6,7.6,10.9,10.1,14.3c1.3,1.7,2.3,3,2.9,4
				c0.7,0.9,1.1,1.4,1.1,1.4s-0.4-0.4-1.2-1.3c-0.8-0.8-1.9-2.1-3.3-3.7c-1.4-1.6-3-3.6-4.9-5.9c-1.9-2.3-3.9-4.9-6.1-7.9
				c-2.2-2.9-4.5-6.1-6.8-9.6c-2.3-3.5-4.7-7.2-7-11.1c-2.3-4-4.6-8.1-6.6-12.5c-2-4.4-3.8-9-5.1-13.8c-0.6-2.4-1.1-4.8-1.4-7.4
				c-0.1-0.6-0.1-1.3-0.2-1.9c0-0.6,0-1.2,0-1.8l0-0.5l0-0.3l0-0.2l0-0.9c0-0.6,0-1.2,0.1-1.8c0.2-4.9,0.9-9.6,2.1-14.1
				c1.2-4.5,3-8.7,5.2-12.3c2.2-3.7,4.8-6.8,7.5-9.3C298.6,20.8,303.9,17,311.2,14.7z"/>
			<path class="st12" d="M291.6,31.4c0,0-5.5,10.1-1.6,17.6c3.9,7.5,7.3-5.7,7.3-5.7l2.8,0.3c0,0-1.4,18.2,6.2,22.1
				c7.6,3.9,10.5-17.4,10.5-17.4l3.3,0.2c0,0,0.5,24,11.8,26.8c11.3,2.9,11.2-24.1,11.2-24.1l3.1,0.3c0,0,0.9,25.8,10.2,26.7
				c9.3,0.9,10.9-26.2,10.9-26.2l3.2-0.2c0,0-1.4,26.1,8.2,24.8c9.6-1.3,9.5-27.6,9.5-27.6l2.9,16.9c0,0-0.2,7.7,3.8,8.7l-14.5,12.8
				l-63.8,6.7l-29.8-30l-4.6-18.6l1.3-14.8l3-2.7c0,0-0.5,0.5-0.4,1.9c0,1.5,2.7,2.3,4.8-0.7L291.6,31.4z"/>
			<line class="st4" x1="339.1" y1="163.3" x2="327.3" y2="211.5"/>
			<line class="st4" x1="348.1" y1="163.3" x2="359.1" y2="211.5"/>
		</g>
	</g>
</g>
</svg>
